<svg width="25" height="24" viewBox="0 0 25 24" fill="none" xmlns="http://www.w3.org/2000/svg">
<g id="Iconly/Bold/Profile">
<g id="Profile">
<path id="Profile_2" d="M10.1815 15.5498C11.6699 15.4338 13.1657 15.4338 14.6541 15.5498C15.4646 15.5955 16.2714 15.6939 17.0692 15.8438C18.7952 16.1818 19.9221 16.7334 20.4051 17.623C20.7677 18.3173 20.7677 19.1436 20.4051 19.8379C19.9221 20.7276 18.8394 21.3147 17.0506 21.6172C16.2538 21.7726 15.4472 21.874 14.6365 21.9199C13.8852 22 13.1331 22 12.3729 22H11.0047C10.7185 21.9644 10.441 21.9463 10.1727 21.9463C9.36179 21.9059 8.55441 21.8084 7.75763 21.6533C6.03174 21.333 4.9047 20.7635 4.42169 19.874C4.23528 19.5295 4.13707 19.1442 4.13556 18.7529C4.13167 18.3593 4.22715 17.9707 4.4129 17.623C4.8869 16.7334 6.01379 16.1552 7.75763 15.8438C8.55787 15.6918 9.36794 15.5934 10.1815 15.5498ZM12.409 2C15.4074 2 17.8377 4.41786 17.8377 7.40039C17.8377 10.3829 15.4074 12.8008 12.409 12.8008C9.41061 12.8008 6.9803 10.3829 6.98029 7.40039C6.98029 4.41787 9.4106 2.00003 12.409 2Z" fill="#98A2B3"/>
</g>
</g>
</svg>
